<svg xmlns="http://www.w3.org/2000/svg" viewBox="0 0 480 480"><path fill="#ffaa45" d="M24,4.041c-3.314,0-6,2.678-6,5.981s2.686,5.981,6,5.981s6-2.678,6-5.981S27.314,4.041,24,4.041z"/><path fill="#2196f3" d="M14,28l2,14v2h16v-2l2-14v-5H14V28z"/><path fill="#1976d2" d="M30,32l-1,10v2h3v-2l1.929-13.5C33.929,28.5,33,31.25,30,32z M18,32l1,10v2h-3v-2l-1.929-13.5 C14.071,28.5,15,31.25,18,32z"/><path fill="#ffaa45" d="M31.732,41.268C32.22,41.756,32.86,42,33.5,42s1.28-0.244,1.768-0.732L37,39.535L33.465,36 l-1.732,1.732C30.756,38.709,30.756,40.291,31.732,41.268z M16.268,41.268C15.78,41.756,15.14,42,14.5,42s-1.28-0.244-1.768-0.732 L11,39.535L14.535,36l1.732,1.732C17.244,38.709,17.244,40.291,16.268,41.268z"/><path fill="#2196f3" d="M42.419,30.898l-6.146-7.366C34.678,21.318,32.109,20,29.376,20H24h-5.376 c-2.733,0-5.302,1.318-6.897,3.532l-6.146,7.366c-0.829,0.993-0.763,2.455,0.152,3.369L11,39.535L14.535,36l-3.652-3.652 l4.745-5.687c0.045-0.054,0.088-0.11,0.129-0.168C16.411,25.559,17.483,25,18.624,25H24h5.376c1.141,0,2.213,0.559,2.867,1.493 c0.041,0.058,0.083,0.114,0.129,0.168l4.745,5.687L33.465,36L37,39.535l5.268-5.268C43.183,33.354,43.249,31.892,42.419,30.898z"/><path fill="#bdbdbd" d="M29,20v1c0,2.24-0.43,7.79-4.37,10.77L24.6,31.8c-0.07,0.05-0.14,0.09-0.22,0.12 c-0.05,0.03-0.1,0.04-0.16,0.05C24.15,31.99,24.08,32,24,32c-0.16,0-0.32-0.04-0.46-0.11c-0.06-0.04-0.12-0.07-0.17-0.12 c-0.06-0.05-0.12-0.11-0.17-0.17c-0.33-0.44-0.24-1.07,0.2-1.4c0.21-0.16,0.41-0.33,0.6-0.51c2.69-2.55,3-6.87,3-8.69v-1H29z"/><path fill="#fff" d="M26.7,31.299l-2.882-1.262c-0.254-0.111-0.551,0.003-0.664,0.255l-2.111,4.744 c-0.112,0.252,0.003,0.547,0.257,0.658l2.882,1.262c0.254,0.111,0.552-0.003,0.664-0.255l2.111-4.744 C27.069,31.706,26.954,31.411,26.7,31.299z"/><path fill="#e0e0e0" d="M24.8,31.6c-0.05,0.06-0.11,0.12-0.17,0.17c-0.05,0.05-0.11,0.08-0.17,0.12 c-0.01,0-0.03,0.01-0.04,0.02c-0.06,0.03-0.13,0.05-0.2,0.06C24.15,31.99,24.08,32,24,32s-0.15-0.01-0.22-0.03 c-0.07-0.01-0.14-0.03-0.2-0.06c-0.01-0.01-0.03-0.02-0.04-0.02c-0.05-0.03-0.1-0.06-0.14-0.09l-0.03-0.03 C19.43,28.79,19,23.24,19,21v-1h2v1c0,1.82,0.31,6.14,3,8.69c0.19,0.18,0.39,0.35,0.6,0.51C25.04,30.53,25.13,31.16,24.8,31.6z"/></svg>